<?xml version="1.0" standalone="no"?>
<!DOCTYPE svg PUBLIC "-//W3C//DTD SVG 20010904//EN"
 "http://www.w3.org/TR/2001/REC-SVG-20010904/DTD/svg10.dtd">
<svg version="1.0" xmlns="http://www.w3.org/2000/svg"
 width="200.000000pt" height="188.000000pt" viewBox="0 0 200.000000 188.000000"
 preserveAspectRatio="xMidYMid meet">
<metadata>
Created by potrace 1.15, written by Peter Selinger 2001-2017
</metadata>
<g transform="translate(0.000000,188.000000) scale(0.100000,-0.100000)"
fill="#000000" stroke="none">
<path d="M506 1488 c-9 -24 -52 -151 -96 -283 -44 -132 -123 -367 -175 -522
-52 -155 -95 -284 -95 -287 0 -3 82 -6 183 -6 l183 0 97 329 c53 182 97 339
97 351 0 11 -16 73 -36 138 -20 64 -50 163 -66 220 -27 91 -33 102 -54 102
-17 0 -26 -10 -38 -42z"/>
<path d="M620 1513 c0 -15 43 -157 111 -367 16 -49 29 -95 29 -102 0 -7 4 -14
8 -16 4 -1 18 -32 29 -68 40 -122 43 -110 -31 -110 -77 0 -72 5 -110 -130 -15
-52 -29 -103 -32 -112 -5 -17 6 -18 143 -18 l149 0 18 -67 c10 -37 24 -82 31
-100 l14 -33 185 0 c103 0 186 2 186 4 0 2 -53 165 -119 362 -65 197 -145 452
-177 566 l-59 208 -187 0 c-169 0 -188 -2 -188 -17z"/>
<path d="M1396 1478 c-9 -29 -49 -173 -90 -319 l-74 -266 65 -224 c36 -123 68
-235 72 -249 5 -18 14 -25 31 -25 29 0 19 -24 140 365 50 162 113 365 140 450
72 231 90 291 90 306 0 11 -33 14 -180 14 l-179 0 -15 -52z"/>
</g>
</svg>
